<svg width="50" height="50" viewBox="0 0 50 50" fill="none" xmlns="http://www.w3.org/2000/svg">
<path d="M24.9993 29.1667C29.5952 29.1667 33.3327 25.4292 33.3327 20.8333C33.3327 16.2375 29.5952 12.5 24.9993 12.5C20.4035 12.5 16.666 16.2375 16.666 20.8333C16.666 25.4292 20.4035 29.1667 24.9993 29.1667ZM24.9993 16.6667C27.2973 16.6667 29.166 18.5354 29.166 20.8333C29.166 23.1312 27.2973 25 24.9993 25C22.7014 25 20.8327 23.1312 20.8327 20.8333C20.8327 18.5354 22.7014 16.6667 24.9993 16.6667Z" fill="#1F88AB"/>
<path d="M23.7925 45.4457C24.1451 45.6975 24.5676 45.8328 25.0008 45.8328C25.4341 45.8328 25.8566 45.6975 26.2092 45.4457C26.8425 44.9978 41.7279 34.2498 41.6675 20.8332C41.6675 11.6436 34.1904 4.1665 25.0008 4.1665C15.8113 4.1665 8.33417 11.6436 8.33417 20.8228C8.27375 34.2498 23.1592 44.9978 23.7925 45.4457ZM25.0008 8.33317C31.8946 8.33317 37.5008 13.9394 37.5008 20.8436C37.5446 30.0894 28.3592 38.3915 25.0008 41.1144C21.6446 38.3894 12.4571 30.0853 12.5008 20.8332C12.5008 13.9394 18.1071 8.33317 25.0008 8.33317Z" fill="#1F88AB"/>
</svg>
