<svg width="50" height="50" viewBox="0 0 50 50" fill="none" xmlns="http://www.w3.org/2000/svg">
<path d="M45.9531 39.9648H4.04687C2.97656 39.9648 2.55078 39.2969 2.55078 38.4688V11.5312C2.55078 10.7031 3.21875 10.0352 4.04687 10.0352H45.9492C46.7773 10.0352 47.4453 10.7031 47.4453 11.5312V38.4688C47.4461 38.6651 47.408 38.8597 47.3334 39.0413C47.2587 39.2229 47.1489 39.388 47.0102 39.527C46.8716 39.666 46.7068 39.7763 46.5254 39.8514C46.344 39.9266 46.1495 39.9651 45.9531 39.9648Z" fill="white"/>
<path d="M47.2428 10.9845C47.1477 10.8705 47.0114 10.7987 46.8636 10.7848C46.7157 10.7709 46.5684 10.816 46.4537 10.9103L32.1217 22.9728V25.4533L33.5944 24.1134L46.192 39.2423C46.4537 39.4962 46.6764 39.5939 46.9069 39.4259C47.0514 39.3204 47.0201 39.1212 46.8092 38.8908L35.2584 22.6017L47.1725 11.7736C47.4069 11.5783 47.442 11.2228 47.2428 10.9845ZM18.3756 23.3868L3.54748 10.9103C3.4909 10.8631 3.42554 10.8276 3.35518 10.8058C3.28482 10.784 3.21084 10.7763 3.1375 10.7832C3.06417 10.7901 2.99292 10.8115 2.92786 10.846C2.8628 10.8805 2.80521 10.9276 2.75842 10.9845C2.5592 11.2228 2.59435 11.5783 2.83263 11.7736L14.7467 22.6017L3.19201 38.8947C2.98498 39.1251 2.95373 39.3243 3.09435 39.4298C3.32482 39.5978 3.54748 39.5001 3.8092 39.2462L16.4069 24.1134L18.3756 25.9025V23.3868Z" fill="#6FBFF0" stroke="#6FBFF0" stroke-width="0.195312" stroke-miterlimit="10"/>
<path d="M45.9531 39.9648H4.04687C2.97656 39.9648 2.55078 39.2969 2.55078 38.4688V11.5312C2.55078 10.7031 3.21875 10.0352 4.04687 10.0352H45.9492C46.7773 10.0352 47.4453 10.7031 47.4453 11.5312V38.4688C47.4461 38.6651 47.408 38.8597 47.3334 39.0413C47.2587 39.2229 47.1489 39.388 47.0102 39.527C46.8716 39.666 46.7068 39.7763 46.5254 39.8514C46.344 39.9266 46.1495 39.9651 45.9531 39.9648Z" stroke="#6FBFF0" stroke-width="1.5625" stroke-miterlimit="10"/>
<path d="M20.125 16.3906L30.0859 15.4961H30.6406C30.7539 15.4961 30.8633 15.5469 30.9336 15.6367L31.5 16.3594C31.5195 16.3853 31.5304 16.4168 31.5313 16.4492V19.5039C31.5313 19.5859 31.4648 19.6523 31.3828 19.6523H23.5703C23.5309 19.6523 23.4932 19.668 23.4654 19.6958C23.4375 19.7237 23.4219 19.7614 23.4219 19.8008V23.7031C23.4219 23.793 23.5 23.8594 23.5898 23.8477L29.543 22.9688H29.8047C29.9297 22.9688 30.0469 23.0273 30.1211 23.1211L30.6797 23.832C30.6992 23.858 30.7101 23.8894 30.7109 23.9219V26.9766C30.7109 27.0586 30.6445 27.125 30.5625 27.125H23.5742C23.5348 27.125 23.4971 27.1406 23.4693 27.1685C23.4414 27.1963 23.4258 27.2341 23.4258 27.2734V31.1719C23.4258 31.2617 23.5078 31.332 23.5977 31.3164L28.7266 30.4414C28.7344 30.4414 28.7422 30.4375 28.75 30.4375H30.625C30.75 30.4375 30.8672 30.4961 30.9453 30.5938L31.5 31.3047C31.5195 31.3307 31.5304 31.3621 31.5313 31.3945V34.4492C31.5313 34.5313 31.4648 34.5977 31.3828 34.5977H20.0703C20.048 34.5977 20.0259 34.5928 20.0056 34.5834C19.9854 34.5739 19.9675 34.5601 19.9531 34.543L19.3203 33.7344C19.3002 33.7058 19.2893 33.6717 19.2891 33.6367L19.9922 16.5352C19.9961 16.457 20.0547 16.3945 20.125 16.3906Z" fill="#0D47A1"/>
<path d="M19.5469 15.4961H30.5664C30.7109 15.4961 30.8242 15.6133 30.8242 15.7539V18.4883C30.8242 18.6328 30.707 18.7461 30.5664 18.7461H22.9766C22.832 18.7461 22.7187 18.8633 22.7187 19.0039V22.7031C22.7187 22.8477 22.8359 22.9609 22.9766 22.9609H29.75C29.8945 22.9609 30.0078 23.0781 30.0078 23.2188V25.9531C30.0078 26.0977 29.8906 26.2109 29.75 26.2109H22.9766C22.832 26.2109 22.7187 26.3281 22.7187 26.4688V30.168C22.7187 30.3125 22.8359 30.4258 22.9766 30.4258H30.5664C30.7109 30.4258 30.8242 30.543 30.8242 30.6836V33.418C30.8242 33.5625 30.707 33.6758 30.5664 33.6758H19.5469C19.4785 33.6758 19.4129 33.6486 19.3646 33.6003C19.3162 33.5519 19.2891 33.4863 19.2891 33.418V15.7539C19.2891 15.6094 19.4062 15.4961 19.5469 15.4961Z" fill="#2196F3"/>
</svg>
