<svg width="34" height="42" viewBox="0 0 34 42" fill="none" xmlns="http://www.w3.org/2000/svg">
<path d="M16.5229 14.5458V14.5458C14.4162 16.4359 13.4783 19.4284 14.8558 21.9009C14.8944 21.9702 14.9334 22.0394 14.9729 22.1083C15.011 22.1718 15.0495 22.2352 15.0884 22.2983C16.5946 24.7459 19.6972 25.4212 22.4437 24.5749V24.5749C24.9437 23.8041 27.6729 24.5958 29.3354 26.5749L31.877 29.5999C32.9061 30.8143 33.422 32.3816 33.3155 33.9698C33.2089 35.5579 32.4883 37.0422 31.3062 38.1083C27.1604 41.8916 20.777 43.1708 15.9979 39.4166C11.7976 36.1093 8.24363 32.0553 5.51454 27.4583C2.77947 22.8828 0.949059 17.8245 0.122877 12.5583C-0.79379 6.63327 3.54371 1.8916 8.95204 0.274933C12.177 -0.691734 15.6187 0.966599 16.802 4.05827L18.1979 7.7041C19.1145 10.1041 18.4562 12.8124 16.5229 14.5458Z" fill="#5CCAED"/>
</svg>
