<svg width="1571" height="892" viewBox="0 0 1571 892" fill="none" xmlns="http://www.w3.org/2000/svg">
<path d="M0 167.781L47.9667 264.136C95.9333 359.588 191.867 553.651 287.8 576.893C383.733 601.038 479.667 456.619 575.6 456.619C671.533 456.619 767.467 601.038 863.4 576.893C959.333 553.651 1055.27 359.588 1151.2 276.096C1247.13 192.603 1343.07 215.169 1391.03 228.031L1439 239.991V817.667H1391.03C1343.07 817.667 1247.13 817.667 1151.2 817.667C1055.27 817.667 959.333 817.667 863.4 817.667C767.467 817.667 671.533 817.667 575.6 817.667C479.667 817.667 383.733 817.667 287.8 817.667C191.867 817.667 95.9333 817.667 47.9667 817.667H0V167.781Z" fill="#0099FF"/>
</svg>
