<svg width="30" height="30" viewBox="0 0 30 30" fill="none" xmlns="http://www.w3.org/2000/svg">
<path d="M15 24.4687C14.8333 24.4687 14.6771 24.4429 14.5312 24.3912C14.3854 24.3396 14.25 24.2508 14.125 24.125L5.875 15.875C5.625 15.625 5.5 15.3283 5.5 14.985C5.5 14.6417 5.625 14.3446 5.875 14.0937C6.125 13.8437 6.41667 13.7187 6.75 13.7187C7.08333 13.7187 7.375 13.8437 7.625 14.0937L13.75 20.2187V6.21875C13.75 5.86458 13.87 5.57292 14.11 5.34375C14.35 5.11458 14.6467 5 15 5C15.3542 5 15.6512 5.12 15.8912 5.36C16.1312 5.6 16.2508 5.89667 16.25 6.25V20.2187L22.375 14.0937C22.625 13.8437 22.9167 13.7187 23.25 13.7187C23.5833 13.7187 23.875 13.8437 24.125 14.0937C24.375 14.3437 24.5 14.6408 24.5 14.985C24.5 15.3292 24.375 15.6258 24.125 15.875L15.875 24.125C15.75 24.25 15.6146 24.3387 15.4687 24.3912C15.3229 24.4437 15.1667 24.4696 15 24.4687Z" fill="#F8F8F8"/>
</svg>
