<svg width="1571" height="759" viewBox="0 0 1571 759" fill="none" xmlns="http://www.w3.org/2000/svg">
<path d="M0 0.941406L52.3667 113.235C104.733 224.477 209.467 450.642 314.2 477.729C418.933 505.868 523.667 337.559 628.4 337.559C733.133 337.559 837.867 505.868 942.6 477.729C1047.33 450.642 1152.07 224.477 1256.8 127.173C1361.53 29.8695 1466.27 56.1677 1518.63 71.1577L1571 85.0958V758.331H1518.63C1466.27 758.331 1361.53 758.331 1256.8 758.331C1152.07 758.331 1047.33 758.331 942.6 758.331C837.867 758.331 733.133 758.331 628.4 758.331C523.667 758.331 418.933 758.331 314.2 758.331C209.467 758.331 104.733 758.331 52.3667 758.331H0V0.941406Z" fill="#0099FF"/>
</svg>
