<svg width="1571" height="840" viewBox="0 0 1571 840" fill="none" xmlns="http://www.w3.org/2000/svg">
<path d="M0 84L52.3667 196.087C104.733 307.125 209.467 532.875 314.2 559.912C418.933 588 523.667 420 628.4 420C733.133 420 837.867 588 942.6 559.912C1047.33 532.875 1152.07 307.125 1256.8 210C1361.53 112.875 1466.27 139.125 1518.63 154.087L1571 168V840H1518.63C1466.27 840 1361.53 840 1256.8 840C1152.07 840 1047.33 840 942.6 840C837.867 840 733.133 840 628.4 840C523.667 840 418.933 840 314.2 840C209.467 840 104.733 840 52.3667 840H0V84Z" fill="#0099FF"/>
</svg>
