<svg width="1571" height="892" viewBox="0 0 1571 892" fill="none" xmlns="http://www.w3.org/2000/svg">
<path d="M0 89.1992L52.3667 197.992C104.733 305.765 209.467 524.879 314.2 551.122C418.933 578.383 523.667 415.322 628.4 415.322C733.133 415.322 837.867 578.383 942.6 551.122C1047.33 524.879 1152.07 305.765 1256.8 211.495C1361.53 117.225 1466.27 142.704 1518.63 157.226L1571 170.73V822.975H1518.63C1466.27 822.975 1361.53 822.975 1256.8 822.975C1152.07 822.975 1047.33 822.975 942.6 822.975C837.867 822.975 733.133 822.975 628.4 822.975C523.667 822.975 418.933 822.975 314.2 822.975C209.467 822.975 104.733 822.975 52.3667 822.975H0V89.1992Z" fill="#0099FF"/>
</svg>
